<svg width="372" height="372" viewBox="0 0 372 372" fill="none" xmlns="http://www.w3.org/2000/svg">
<g clip-path="url(#clip0_41_2)">
<rect width="372" height="372" fill="white"/>
<path d="M85.2647 319.971C85.2647 319.971 85.2647 318.099 85.2647 314.355V301.382V288.409V282.794H90.8799H103.853H116.826H122.441C122.441 282.794 122.441 284.666 122.441 288.409V301.382V314.355V319.971C122.441 319.971 120.569 319.971 116.826 319.971H103.853H90.8799H85.2647ZM178.206 319.971C178.206 319.971 178.206 318.099 178.206 314.355V301.382V288.409V282.794H183.821H196.794H209.767H215.382C215.382 282.794 215.382 284.666 215.382 288.409V301.382V314.355V319.971C215.382 319.971 213.511 319.971 209.767 319.971H196.794H183.821H178.206ZM85.2647 296.735C85.2647 296.735 85.2647 294.864 85.2647 291.12V278.147V265.174V259.559H90.8799H103.853H116.826H122.441C122.441 259.559 122.441 261.431 122.441 265.174V278.147V291.12V296.735C122.441 296.735 120.569 296.735 116.826 296.735H103.853H90.8799H85.2647ZM178.206 296.735C178.206 296.735 178.206 294.864 178.206 291.12V278.147V265.174V259.559H183.821H196.794H209.767H215.382C215.382 259.559 215.382 261.431 215.382 265.174V278.147V291.12V296.735C215.382 296.735 213.511 296.735 209.767 296.735H196.794H183.821H178.206ZM85.2647 273.5C85.2647 273.5 85.2647 271.628 85.2647 267.885V254.912V241.939V236.324H90.8799H103.853H116.826H122.441C122.441 236.324 122.441 238.195 122.441 241.939V254.912V267.885V273.5C122.441 273.5 120.569 273.5 116.826 273.5H103.853H90.8799H85.2647ZM178.206 273.5C178.206 273.5 178.206 271.628 178.206 267.885V254.912V241.939V236.324H183.821H196.794H209.767H215.382C215.382 236.324 215.382 238.195 215.382 241.939V254.912V267.885V273.5C215.382 273.5 213.511 273.5 209.767 273.5H196.794H183.821H178.206ZM85.2647 250.265C85.2647 250.265 85.2647 248.393 85.2647 244.65V231.676V218.703V213.088H90.8799H103.853H116.826H122.441C122.441 213.088 122.441 214.96 122.441 218.703V231.676V244.65V250.265C122.441 250.265 120.569 250.265 116.826 250.265H103.853H90.8799H85.2647ZM108.5 250.265C108.5 250.265 108.5 248.393 108.5 244.65V231.676V218.703V213.088H114.115H127.088H140.061H145.676C145.676 213.088 145.676 214.96 145.676 218.703V231.676V244.65V250.265C145.676 250.265 143.805 250.265 140.061 250.265H127.088H114.115H108.5ZM131.735 250.265C131.735 250.265 131.735 248.393 131.735 244.65V231.676V218.703V213.088H137.35H150.324H163.297H168.912C168.912 213.088 168.912 214.96 168.912 218.703V231.676V244.65V250.265C168.912 250.265 167.04 250.265 163.297 250.265H150.324H137.35H131.735ZM154.971 250.265C154.971 250.265 154.971 248.393 154.971 244.65V231.676V218.703V213.088H160.586H173.559H186.532H192.147C192.147 213.088 192.147 214.96 192.147 218.703V231.676V244.65V250.265C192.147 250.265 190.275 250.265 186.532 250.265H173.559H160.586H154.971ZM178.206 250.265C178.206 250.265 178.206 248.393 178.206 244.65V231.676V218.703V213.088H183.821H196.794H209.767H215.382C215.382 213.088 215.382 214.96 215.382 218.703V231.676V244.65V250.265C215.382 250.265 213.511 250.265 209.767 250.265H196.794H183.821H178.206ZM85.2647 227.029C85.2647 227.029 85.2647 225.158 85.2647 221.414V208.441V195.468V189.853H90.8799H103.853H116.826H122.441C122.441 189.853 122.441 191.725 122.441 195.468V208.441V221.414V227.029C122.441 227.029 120.569 227.029 116.826 227.029H103.853H90.8799H85.2647ZM178.206 227.029C178.206 227.029 178.206 225.158 178.206 221.414V208.441V195.468V189.853H183.821H196.794H209.767H215.382C215.382 189.853 215.382 191.725 215.382 195.468V208.441V221.414V227.029C215.382 227.029 213.511 227.029 209.767 227.029H196.794H183.821H178.206ZM85.2647 203.794C85.2647 203.794 85.2647 201.922 85.2647 198.179V185.206V172.233V166.618H90.8799H103.853H116.826H122.441C122.441 166.618 122.441 168.489 122.441 172.233V185.206V198.179V203.794C122.441 203.794 120.569 203.794 116.826 203.794H103.853H90.8799H85.2647ZM178.206 203.794C178.206 203.794 178.206 201.922 178.206 198.179V185.206V172.233V166.618H183.821H196.794H209.767H215.382C215.382 166.618 215.382 168.489 215.382 172.233V185.206V198.179V203.794C215.382 203.794 213.511 203.794 209.767 203.794H196.794H183.821H178.206ZM85.2647 180.559C85.2647 180.559 85.2647 178.687 85.2647 174.944V161.971V148.998V143.382H90.8799H103.853H116.826H122.441C122.441 143.382 122.441 145.254 122.441 148.998V161.971V174.944V180.559C122.441 180.559 120.569 180.559 116.826 180.559H103.853H90.8799H85.2647ZM178.206 180.559C178.206 180.559 178.206 178.687 178.206 174.944V161.971V148.998V143.382H183.821H196.794H209.767H215.382C215.382 143.382 215.382 145.254 215.382 148.998V161.971V174.944V180.559C215.382 180.559 213.511 180.559 209.767 180.559H196.794H183.821H178.206ZM85.2647 157.324C85.2647 157.324 85.2647 155.452 85.2647 151.708V138.735V125.762V120.147H90.8799H103.853H116.826H122.441C122.441 120.147 122.441 122.019 122.441 125.762V138.735V151.708V157.324C122.441 157.324 120.569 157.324 116.826 157.324H103.853H90.8799H85.2647ZM178.206 157.324C178.206 157.324 178.206 155.452 178.206 151.708V138.735V125.762V120.147H183.821H196.794H209.767H215.382C215.382 120.147 215.382 122.019 215.382 125.762V138.735V151.708V157.324C215.382 157.324 213.511 157.324 209.767 157.324H196.794H183.821H178.206ZM96.8824 134.088C96.8824 134.088 96.8824 132.216 96.8824 128.473V115.5V102.527V96.9117H102.498H115.471H128.444H134.059C134.059 96.9117 134.059 98.7835 134.059 102.527V115.5V128.473V134.088C134.059 134.088 132.187 134.088 128.444 134.088H115.471H102.498H96.8824ZM166.588 134.088C166.588 134.088 166.588 132.216 166.588 128.473V115.5V102.527V96.9117H172.203H185.176H198.15H203.765C203.765 96.9117 203.765 98.7835 203.765 102.527V115.5V128.473V134.088C203.765 134.088 201.893 134.088 198.15 134.088H185.176H172.203H166.588ZM108.5 110.853C108.5 110.853 108.5 108.981 108.5 105.238V92.2647V79.2917V73.6764H114.115H127.088H140.061H145.676C145.676 73.6764 145.676 75.5482 145.676 79.2917V92.2647V105.238V110.853C145.676 110.853 143.805 110.853 140.061 110.853H127.088H114.115H108.5ZM154.971 110.853C154.971 110.853 154.971 108.981 154.971 105.238V92.2647V79.2917V73.6764H160.586H173.559H186.532H192.147C192.147 73.6764 192.147 75.5482 192.147 79.2917V92.2647V105.238V110.853C192.147 110.853 190.275 110.853 186.532 110.853H173.559H160.586H154.971ZM120.118 87.6176C120.118 87.6176 120.118 85.7459 120.118 82.0024V69.0294V56.0564V50.4412H125.733H138.706H151.679H157.294C157.294 50.4412 157.294 52.3129 157.294 56.0564V69.0294V82.0024V87.6176C157.294 87.6176 155.422 87.6176 151.679 87.6176H138.706H125.733H120.118ZM143.353 87.6176C143.353 87.6176 143.353 85.7459 143.353 82.0024V69.0294V56.0564V50.4412H148.968H161.941H174.914H180.529C180.529 50.4412 180.529 52.3129 180.529 56.0564V69.0294V82.0024V87.6176C180.529 87.6176 178.658 87.6176 174.914 87.6176H161.941H148.968H143.353ZM248.048 319.971C248.048 319.971 248.048 318.099 248.048 314.355V301.382V288.409V282.794H253.663H266.636H279.609H285.224C285.224 282.794 285.224 284.666 285.224 288.409V301.382V314.355V319.971C285.224 319.971 283.353 319.971 279.609 319.971H266.636H253.663H248.048ZM248.048 296.735C248.048 296.735 248.048 294.864 248.048 291.12V278.147V265.174V259.559H253.663H266.636H279.609H285.224C285.224 259.559 285.224 261.431 285.224 265.174V278.147V291.12V296.735C285.224 296.735 283.353 296.735 279.609 296.735H266.636H253.663H248.048ZM248.048 273.5C248.048 273.5 248.048 271.628 248.048 267.885V254.912V241.939V236.324H253.663H266.636H279.609H285.224C285.224 236.324 285.224 238.195 285.224 241.939V254.912V267.885V273.5C285.224 273.5 283.353 273.5 279.609 273.5H266.636H253.663H248.048ZM248.048 250.265C248.048 250.265 248.048 248.393 248.048 244.65V231.676V218.703V213.088H253.663H266.636H279.609H285.224C285.224 213.088 285.224 214.96 285.224 218.703V231.676V244.65V250.265C285.224 250.265 283.353 250.265 279.609 250.265H266.636H253.663H248.048ZM248.048 227.029C248.048 227.029 248.048 225.158 248.048 221.414V208.441V195.468V189.853H253.663H266.636H279.609H285.224C285.224 189.853 285.224 191.725 285.224 195.468V208.441V221.414V227.029C285.224 227.029 283.353 227.029 279.609 227.029H266.636H253.663H248.048ZM248.048 203.794C248.048 203.794 248.048 201.922 248.048 198.179V185.206V172.233V166.618H253.663H266.636H279.609H285.224C285.224 166.618 285.224 168.489 285.224 172.233V185.206V198.179V203.794C285.224 203.794 283.353 203.794 279.609 203.794H266.636H253.663H248.048ZM248.048 180.559C248.048 180.559 248.048 178.687 248.048 174.944V161.971V148.998V143.382H253.663H266.636H279.609H285.224C285.224 143.382 285.224 145.254 285.224 148.998V161.971V174.944V180.559C285.224 180.559 283.353 180.559 279.609 180.559H266.636H253.663H248.048ZM248.048 157.324C248.048 157.324 248.048 155.452 248.048 151.708V138.735V125.762V120.147H253.663H266.636H279.609H285.224C285.224 120.147 285.224 122.019 285.224 125.762V138.735V151.708V157.324C285.224 157.324 283.353 157.324 279.609 157.324H266.636H253.663H248.048ZM248.048 110.853C248.048 110.853 248.048 108.981 248.048 105.238V92.2647V79.2917V73.6764H253.663H266.636H279.609H285.224C285.224 73.6764 285.224 75.5482 285.224 79.2917V92.2647V105.238V110.853C285.224 110.853 283.353 110.853 279.609 110.853H266.636H253.663H248.048ZM248.048 87.6176C248.048 87.6176 248.048 85.7459 248.048 82.0024V69.0294V56.0564V50.4412H253.663H266.636H279.609H285.224C285.224 50.4412 285.224 52.3129 285.224 56.0564V69.0294V82.0024V87.6176C285.224 87.6176 283.353 87.6176 279.609 87.6176H266.636H253.663H248.048Z" fill="black"/>
</g>
<defs>
<clipPath id="clip0_41_2">
<rect width="372" height="372" fill="white"/>
</clipPath>
</defs>
</svg>
